<svg width="38" height="38" viewBox="0 0 38 38" fill="none" xmlns="http://www.w3.org/2000/svg">
<path d="M22.9488 16.0575C22.6254 16.0575 22.3633 16.3196 22.3633 16.643V27.7085C22.3633 28.0317 22.6254 28.294 22.9488 28.294C23.2721 28.294 23.5342 28.0317 23.5342 27.7085V16.643C23.5342 16.3196 23.2721 16.0575 22.9488 16.0575Z" fill="#919191"/>
<path d="M16.0396 16.0575C15.7162 16.0575 15.4541 16.3196 15.4541 16.643V27.7085C15.4541 28.0317 15.7162 28.294 16.0396 28.294C16.363 28.294 16.6251 28.0317 16.6251 27.7085V16.643C16.6251 16.3196 16.363 16.0575 16.0396 16.0575Z" fill="#919191"/>
<path d="M11.0047 14.4426V28.8676C11.0047 29.7202 11.3173 30.5208 11.8634 31.0954C12.4071 31.6715 13.1636 31.9985 13.9554 31.9999H25.0328C25.8248 31.9985 26.5814 31.6715 27.1247 31.0954C27.6709 30.5208 27.9835 29.7202 27.9835 28.8676V14.4426C29.0692 14.1545 29.7727 13.1056 29.6274 11.9916C29.482 10.8778 28.5331 10.0447 27.4097 10.0444H24.4121V9.31259C24.4155 8.69715 24.1722 8.10619 23.7365 7.67143C23.3008 7.23689 22.709 6.99492 22.0935 6.99995H16.8947C16.2792 6.99492 15.6873 7.23689 15.2517 7.67143C14.816 8.10619 14.5726 8.69715 14.5761 9.31259V10.0444H11.5785C10.4551 10.0447 9.50619 10.8778 9.36074 11.9916C9.21551 13.1056 9.919 14.1545 11.0047 14.4426ZM25.0328 30.8289H13.9554C12.9543 30.8289 12.1756 29.969 12.1756 28.8676V14.4941H26.8126V28.8676C26.8126 29.969 26.0338 30.8289 25.0328 30.8289ZM15.747 9.31259C15.7431 9.00773 15.863 8.71431 16.0793 8.4991C16.2955 8.28389 16.5896 8.16565 16.8947 8.17091H22.0935C22.3986 8.16565 22.6927 8.28389 22.9088 8.4991C23.1252 8.71408 23.245 9.00773 23.2411 9.31259V10.0444H15.747V9.31259ZM11.5785 11.2154H27.4097C27.9918 11.2154 28.4636 11.6872 28.4636 12.2693C28.4636 12.8513 27.9918 13.3231 27.4097 13.3231H11.5785C10.9964 13.3231 10.5246 12.8513 10.5246 12.2693C10.5246 11.6872 10.9964 11.2154 11.5785 11.2154Z" fill="#919191"/>
<path d="M19.4942 16.0575C19.1708 16.0575 18.9087 16.3196 18.9087 16.643V27.7085C18.9087 28.0317 19.1708 28.294 19.4942 28.294C19.8175 28.294 20.0796 28.0317 20.0796 27.7085V16.643C20.0796 16.3196 19.8175 16.0575 19.4942 16.0575Z" fill="#919191"/>
</svg>
